<?xml version="1.0" encoding="UTF-8" standalone="no"?>
<!DOCTYPE svg PUBLIC "-//W3C//DTD SVG 1.1//EN" "http://www.w3.org/Graphics/SVG/1.1/DTD/svg11.dtd">
<svg xmlns:svg="http://www.w3.org/2000/svg" xmlns="http://www.w3.org/2000/svg" version="1.1" width="330.30753" height="768" id="svg41032">
  <defs id="defs41034"/>
  <path d="m 0,223.36627 0,8.31311 330.30754,0 0,-8.31311 -330.30754,0 z m 0,81.19136 0,8.31311 330.30754,0 0,-8.31311 -330.30754,0 z m 0,81.46848 0,8.31311 330.30754,0 0,-8.31311 -330.30754,0 z m 0,81.46847 0,8.31311 330.30754,0 0,-8.31311 -330.30754,0 z m 0,81.46848 0,8.31311 330.30754,0 0,-8.31311 -330.30754,0 z" id="path11149" style="fill:#000000;"/>
  <path d="m 170.34062,557.09075 c 8.50624,0 16.72686,-0.90172 25.24809,-2.0589 l 0,7.33389 c 0,14.98355 -0.3006,30.53815 -1.20232,45.50663 -2.04392,32.28137 -23.77523,61.93279 -55.77108,61.93279 -17.59852,0 -32.8676,-9.69339 -41.373747,-24.36135 3.516687,1.75839 7.033377,2.64503 11.151187,2.64503 16.72686,0 30.82368,-14.09682 30.82368,-30.82359 0,-18.19964 -13.21018,-34.05484 -30.82368,-34.05484 -19.371811,0 -36.399187,14.96847 -36.399187,34.05484 0,36.6848 29.050217,66.62175 65.750087,66.62175 39.32983,0 67.80899,-34.34037 70.15342,-74.25633 0.90172,-15.55461 1.50293,-31.40972 1.50293,-47.26493 l 0,-10.26454 c 9.67841,-2.64503 18.78567,-6.46223 26.99131,-12.62396 24.07583,-18.19963 34.64088,-43.73325 34.64088,-68.39512 0,-43.43265 -32.8675,-85.12199 -83.36359,-85.12199 -0.30061,0 -0.60121,0.30061 -0.90172,0.30061 -6.17671,-24.07583 -12.92456,-48.13659 -20.55905,-71.91181 31.99585,-36.9854 61.34667,-74.85744 61.34667,-123.29463 0,-39.32983 -22.30246,-95.972574 -47.24994,-125.037864 -0.90163,-0.90172 -2.05891,-1.20232 -3.23108,-1.20232 -1.20232,0 -2.34451,0.60121 -3.23116,1.20232 -31.10921,23.48961 -49.00824,59.588374 -49.00824,98.332074 0,18.19964 0.90172,35.81315 2.62996,53.71218 2.94563,23.77522 8.80675,47.26492 16.15581,70.1535 -38.75878,44.92041 -81.905901,88.06753 -81.905901,147.05479 0,65.75009 47.264931,121.82177 108.611681,121.82177 z m 38.44319,-18.78576 c -1.20232,-39.63044 -6.44725,-81.01917 -13.79631,-116.53171 32.88259,4.98946 53.42665,33.75424 53.42665,62.2334 0,23.47463 -16.14065,46.96433 -39.63034,54.29831 z m -37.57154,4.68894 c -44.31929,0 -86.579677,-36.68479 -86.579677,-81.00418 0,-53.71218 35.512537,-94.51478 71.025077,-135.31738 6.16172,20.25854 12.03792,40.502 17.02747,61.04606 -34.9265,6.46233 -55.18504,35.22711 -55.18504,64.87844 0,22.60306 12.03791,46.07768 38.15757,60.1745 0.90172,0.3006 1.75839,0.6012 2.94564,0.6012 3.81729,0 7.03337,-3.53167 7.03337,-7.04836 0,-1.75839 -0.6012,-3.51669 -2.34443,-4.98946 -18.19963,-10.56514 -26.70587,-26.11975 -26.70587,-40.50209 0,-19.67241 16.14073,-37.87205 44.01878,-39.63044 7.93509,36.39928 13.21017,79.5464 14.68294,120.349 -7.92011,1.20232 -15.85511,1.50283 -24.07583,1.50283 z M 193.2292,112.69524 c 9.10736,19.65733 11.45179,28.76469 11.45179,51.65327 0,42.86151 -23.1891,77.788 -50.48102,110.95611 -6.76292,-23.4897 -14.0969,-46.37828 -14.0969,-74.85744 0,-36.6848 20.54415,-70.43904 53.12613,-87.75194 z m 0,0" id="path11249" style="fill:#000000;"/>
</svg>